HIERARCHY
ROOT Pelvis
{
	OFFSET 0.000000 0.941512 0.000000
	CHANNELS 6 Xposition Yposition Zposition Zrotation Yrotation Xrotation 
	JOINT Pelvis_L_Hip
	{
		OFFSET 0.000000 0.000000 0.000000
		CHANNELS 3 Zrotation Yrotation Xrotation
		JOINT L_Hip
		{
			OFFSET 0.062321 -0.080322 -0.016990
			CHANNELS 3 Zrotation Yrotation Xrotation
			JOINT L_Knee
			{
				OFFSET 0.093051 -0.381305 -0.029784
				CHANNELS 3 Zrotation Yrotation Xrotation
				JOINT L_Ankle
				{
					OFFSET -0.010371 -0.431000 -0.033614
					CHANNELS 3 Zrotation Yrotation Xrotation
					End Site #name: L_Foot
					{
						OFFSET 0.069299 -0.038670 0.119418
					}
				}
			}
		}
	}
	JOINT Pelvis_R_Hip
	{
		OFFSET 0.000000 0.000000 0.000000
		CHANNELS 3 Zrotation Yrotation Xrotation
		JOINT R_Hip
		{
			OFFSET -0.055334 -0.094904 -0.002373
			CHANNELS 3 Zrotation Yrotation Xrotation
			JOINT R_Knee
			{
				OFFSET -0.064207 -0.384370 -0.019592
				CHANNELS 3 Zrotation Yrotation Xrotation
				JOINT R_Ankle
				{
					OFFSET 0.025418 -0.419734 -0.065953
					CHANNELS 3 Zrotation Yrotation Xrotation
					End Site #name: R_Foot
					{
						OFFSET -0.057233 -0.039888 0.132134
					}
				}
			}
		}
	}
	JOINT Pelvis_Spine1
	{
		OFFSET 0.000000 0.000000 0.000000
		CHANNELS 3 Zrotation Yrotation Xrotation
		JOINT Spine1
		{
			OFFSET -0.005562 0.124093 -0.043360
			CHANNELS 3 Zrotation Yrotation Xrotation
			JOINT Spine2
			{
				OFFSET 0.012244 0.139499 0.029894
				CHANNELS 3 Zrotation Yrotation Xrotation
				JOINT Spine3
				{
					OFFSET -0.002556 0.056561 0.009225
					CHANNELS 3 Zrotation Yrotation Xrotation
					JOINT Spine3_Neck
					{
						OFFSET 0.000000 0.000000 0.000000
						CHANNELS 3 Zrotation Yrotation Xrotation
						JOINT Neck
						{
							OFFSET -0.005205 0.217920 -0.024551
							CHANNELS 3 Zrotation Yrotation Xrotation
							End Site #name: Head
							{
								OFFSET 0.002365 0.091850 0.046637
							}
						}
					}
					JOINT Spine3_L_Collar
					{
						OFFSET 0.000000 0.000000 0.000000
						CHANNELS 3 Zrotation Yrotation Xrotation
						JOINT L_Collar
						{
							OFFSET 0.072225 0.116603 -0.009480
							CHANNELS 3 Zrotation Yrotation Xrotation
							JOINT L_Shoulder
							{
								OFFSET 0.115937 -0.058643 -0.021018
								CHANNELS 3 Zrotation Yrotation Xrotation
								JOINT L_Elbow
								{
									OFFSET 0.021994 -0.254722 -0.024492
									CHANNELS 3 Zrotation Yrotation Xrotation
									End Site #name: L_Wrist
									{
										OFFSET 0.048810 -0.240214 0.103329
									}
								}
							}
						}
					}
					JOINT Spine3_R_Collar
					{
						OFFSET 0.000000 0.000000 0.000000
						CHANNELS 3 Zrotation Yrotation Xrotation
						JOINT R_Collar
						{
							OFFSET -0.073372 0.120704 -0.024611
							CHANNELS 3 Zrotation Yrotation Xrotation
							JOINT R_Shoulder
							{
								OFFSET -0.108089 -0.054969 -0.020504
								CHANNELS 3 Zrotation Yrotation Xrotation
								JOINT R_Elbow
								{
									OFFSET -0.033684 -0.260739 0.009889
									CHANNELS 3 Zrotation Yrotation Xrotation
									End Site #name: R_Wrist
									{
										OFFSET -0.067980 -0.232763 0.118463
									}
								}
							}
						}
					}
				}
			}
		}
	}
}
MOTION
Frames: 14
Frame Time: 0.041667
-0.223096 0.915890 0.779723 0.843423 -26.251239 -1.271050 0.000000 0.000000 0.000000 -0.233813 -4.811384 -23.478956 -1.902301 0.222335 0.309630 -5.291308 -15.436661 1.157622 0.000000 0.000000 0.000000 7.898552 -3.040523 13.880349 -1.192925 0.358009 2.328429 -5.626846 12.483383 -14.576578 0.000000 0.000000 0.000000 5.813529 -1.128150 -0.834524 -1.533823 0.359931 2.306823 -2.909180 -4.757470 3.868338 0.000000 0.000000 0.000000 0.341224 -0.308696 -2.677992 0.000000 0.000000 0.000000 4.412949 -4.690267 -2.345197 -5.698298 2.311958 10.406471 1.217188 -2.370137 -15.907525 0.000000 0.000000 0.000000 -8.935927 10.097156 -3.411123 0.406266 -0.887616 6.663485 -2.825186 3.232902 -15.705441 
-0.243804 0.910078 0.831786 1.842769 -27.833072 -0.615829 0.000000 0.000000 0.000000 -2.216589 -5.143687 -24.020544 -1.767522 0.224429 3.213725 -6.873109 -15.836103 3.800304 0.000000 0.000000 0.000000 6.432932 -3.006262 15.744941 -1.703523 0.542798 3.401351 -5.697287 12.722442 -14.614598 0.000000 0.000000 0.000000 5.430459 -0.877218 -2.665506 -1.899522 0.366899 1.423575 -3.480624 -5.094153 3.941309 0.000000 0.000000 0.000000 0.252614 -0.259687 -2.280514 0.000000 0.000000 0.000000 4.821168 -3.737307 -1.881902 -5.474270 2.274734 10.424076 2.049132 -1.730940 -15.278569 0.000000 0.000000 0.000000 -8.856875 9.439427 -2.908698 1.124063 -0.999804 7.497208 -3.630454 2.467542 -15.004513 
-0.267422 0.911812 0.886330 3.145285 -28.729552 -0.928811 0.000000 0.000000 0.000000 -4.266237 -5.378931 -23.790893 -0.881824 0.196031 8.783483 -8.656686 -17.335650 6.079989 0.000000 0.000000 0.000000 4.845313 -2.735929 16.385404 -2.627486 1.302395 8.315507 -3.704625 13.508866 -11.689664 0.000000 0.000000 0.000000 4.230681 -0.567517 -3.698632 -1.962155 0.334401 0.707913 -4.081947 -5.623011 4.180870 0.000000 0.000000 0.000000 0.546319 -0.399022 -2.081708 0.000000 0.000000 0.000000 5.044561 -3.682826 -1.897201 -4.611209 1.992799 9.852589 2.926985 -0.838408 -13.222305 0.000000 0.000000 0.000000 -7.923016 8.095885 -2.231465 1.981676 -1.178438 8.734143 -5.267887 1.096123 -14.045871 
-0.294114 0.920167 0.939106 3.926879 -29.376545 -2.613276 0.000000 0.000000 0.000000 -5.315310 -4.767932 -19.911417 -0.786580 0.298181 11.495768 -7.560749 -18.469884 3.536124 0.000000 0.000000 0.000000 3.419532 -2.197711 14.239049 -1.672626 3.067489 20.552100 0.792710 12.712476 -4.528947 0.000000 0.000000 0.000000 3.802315 -0.557001 -2.909361 -2.340879 0.369021 0.257743 -4.936318 -6.512032 4.572733 0.000000 0.000000 0.000000 1.240641 -0.731252 -1.930874 0.000000 0.000000 0.000000 5.911793 -4.934074 -2.665492 -4.319912 1.874141 9.447309 4.234893 0.303877 -10.657952 0.000000 0.000000 0.000000 -7.694561 6.518125 -1.210127 4.633537 -1.254668 9.138227 -7.564080 -0.786429 -12.625959 
-0.321085 0.927245 0.984981 4.198716 -29.885496 -4.238634 0.000000 0.000000 0.000000 -5.528401 -3.427050 -13.652789 -1.389709 0.355450 9.519119 -6.379809 -19.544812 0.859826 0.000000 0.000000 0.000000 1.805382 -1.311738 8.711894 3.730841 3.956847 34.948293 1.254147 1.714771 1.228099 0.000000 0.000000 0.000000 4.331768 -0.830309 -0.752253 -3.084358 0.428712 -0.723975 -5.815589 -8.054026 5.265513 0.000000 0.000000 0.000000 2.149744 -1.196818 -2.525122 0.000000 0.000000 0.000000 7.017344 -7.149019 -4.077934 -3.843495 1.825019 9.875518 4.976763 0.913683 -9.260356 0.000000 0.000000 0.000000 -7.877797 4.514162 0.254364 7.039814 -1.184856 8.724192 -8.753149 -1.589514 -12.477231 
-0.348624 0.933829 1.024111 2.999142 -30.074781 -4.585303 0.000000 0.000000 0.000000 -4.383823 -2.160148 -8.614705 -1.217955 0.262798 8.026134 -5.792559 -21.058882 -0.980432 0.000000 0.000000 0.000000 1.493559 -0.527082 2.880358 9.873705 2.453496 41.945187 -3.706176 -13.786200 2.266704 0.000000 0.000000 0.000000 5.777926 -1.285430 1.318660 -3.113903 0.384472 -1.588102 -6.213908 -9.789810 5.582488 0.000000 0.000000 0.000000 3.031600 -1.607876 -2.651370 0.000000 0.000000 0.000000 7.118251 -10.153797 -5.942987 -2.254204 1.509745 10.435303 4.194962 0.738691 -7.729775 0.000000 0.000000 0.000000 -7.438363 2.297303 1.612819 7.115078 -1.325284 9.511356 -8.496215 -1.017528 -14.111334 
-0.377095 0.941068 1.058770 0.830170 -30.102065 -3.850625 0.000000 0.000000 0.000000 -2.081124 -1.123677 -4.594639 -0.870958 0.159974 6.941283 -5.376687 -22.746876 -2.535460 0.000000 0.000000 0.000000 1.919924 0.334116 -2.707945 13.530432 0.592497 41.046601 -6.021593 -19.750826 2.560717 0.000000 0.000000 0.000000 7.066037 -1.613888 2.023905 -1.941560 0.226919 -1.340929 -6.197468 -11.225611 5.380850 0.000000 0.000000 0.000000 4.039897 -2.029760 -2.010435 0.000000 0.000000 0.000000 7.559836 -13.077858 -7.861298 -1.614822 1.271141 9.725007 3.097117 0.489831 -5.678791 0.000000 0.000000 0.000000 -7.142748 0.194516 2.920024 7.225051 -1.604042 11.001561 -8.746655 -0.806735 -15.573177 
-0.405767 0.945545 1.091518 -1.145567 -29.841386 -3.048245 0.000000 0.000000 0.000000 0.447007 -0.131060 -0.509095 -0.993394 0.136539 5.027286 -5.158791 -24.527848 -3.705236 0.000000 0.000000 0.000000 1.772922 1.263521 -7.581906 14.807461 -0.675550 34.497314 -7.779842 -23.980942 2.943019 0.000000 0.000000 0.000000 7.920143 -1.881107 2.877612 -1.076685 0.087577 -1.820417 -5.854961 -12.438326 5.265356 0.000000 0.000000 0.000000 5.321542 -2.579506 -1.739623 0.000000 0.000000 0.000000 9.314073 -15.053552 -9.497900 -2.634622 1.360057 8.407784 2.626416 0.361476 -4.949406 0.000000 0.000000 0.000000 -7.052031 -2.369389 4.589804 8.423691 -1.779837 11.774017 -9.533907 -1.457370 -15.086955 
-0.433916 0.945703 1.123300 -2.711501 -29.403251 -2.124113 0.000000 0.000000 0.000000 2.862295 0.658197 3.040688 -1.399298 0.173288 3.170594 -4.933306 -26.262892 -4.788622 0.000000 0.000000 0.000000 1.264778 1.996270 -11.110981 12.688432 -0.842989 23.633955 -10.385229 -30.333621 4.837261 0.000000 0.000000 0.000000 8.813194 -2.187009 3.876589 -0.800501 0.012477 -3.056061 -5.385398 -13.512276 5.151608 0.000000 0.000000 0.000000 6.523917 -3.087978 -1.652588 0.000000 0.000000 0.000000 10.795514 -16.216065 -10.628530 -3.635918 1.448595 7.321490 2.538516 0.117751 -6.148891 0.000000 0.000000 0.000000 -6.639804 -4.956675 6.095402 9.298427 -1.846524 12.022551 -10.061020 -2.412599 -12.390886 
-0.463222 0.940674 1.154416 -3.476402 -28.924807 -1.404716 0.000000 0.000000 0.000000 4.687984 1.351103 6.321839 -1.816314 0.218061 1.345444 -4.423708 -27.815455 -6.196867 0.000000 0.000000 0.000000 0.053920 2.473325 -13.546702 8.171758 -0.531005 11.603723 -11.292670 -32.784621 6.677442 0.000000 0.000000 0.000000 8.943716 -2.278371 4.315499 -0.401654 -0.053778 -3.796961 -4.868884 -14.357787 5.121248 0.000000 0.000000 0.000000 7.356844 -3.433765 -1.835406 0.000000 0.000000 0.000000 11.825728 -16.952906 -11.409867 -4.171515 1.404418 6.113557 2.283373 -0.407052 -8.518331 0.000000 0.000000 0.000000 -5.609821 -7.000628 6.905107 9.606598 -1.862465 12.164266 -10.538485 -3.567294 -8.212680 
-0.495055 0.931536 1.185472 -3.588345 -28.465440 -1.366003 0.000000 0.000000 0.000000 6.173443 2.072311 9.761688 -2.175398 0.258350 -0.078251 -3.504135 -29.404215 -8.195265 0.000000 0.000000 0.000000 -1.879541 2.671610 -14.976707 3.923252 -0.418861 0.602358 -10.073348 -30.715836 6.770792 0.000000 0.000000 0.000000 8.472370 -2.213264 4.607719 0.106543 -0.113158 -3.829281 -4.342163 -14.881884 5.113582 0.000000 0.000000 0.000000 7.781555 -3.606654 -1.969579 0.000000 0.000000 0.000000 12.841749 -17.618680 -12.143963 -4.709086 1.332744 4.784711 1.766638 -1.104008 -10.908331 0.000000 0.000000 0.000000 -4.354364 -8.290651 7.073935 9.890950 -1.915690 12.511196 -10.829412 -4.588183 -3.736325 
-0.529878 0.920786 1.216562 -3.566286 -27.876526 -1.633411 0.000000 0.000000 0.000000 7.724655 2.646189 12.812372 -2.163124 0.252139 -0.220618 -2.262685 -30.947206 -10.577494 0.000000 0.000000 0.000000 -3.548708 2.640120 -15.297343 0.826692 -0.451236 -8.013853 -8.642732 -28.223914 6.792986 0.000000 0.000000 0.000000 8.313580 -2.206159 4.829174 0.597655 -0.164140 -3.441072 -3.977924 -15.103282 4.880551 0.000000 0.000000 0.000000 7.915514 -3.660140 -1.679671 0.000000 0.000000 0.000000 13.475543 -18.489416 -12.904638 -5.296756 1.293850 3.705297 1.164227 -1.753051 -12.559766 0.000000 0.000000 0.000000 -3.311191 -8.835482 6.853602 10.341725 -2.121169 13.507376 -10.994872 -5.275966 -0.403563 
-0.569152 0.911074 1.246903 -3.656397 -27.027805 -1.676613 0.000000 0.000000 0.000000 9.543416 2.916080 15.046512 -1.577347 0.174020 0.873075 -1.181977 -32.323236 -12.552304 0.000000 0.000000 0.000000 -4.559230 2.668401 -15.794664 0.486304 -0.487906 -9.956670 -9.690913 -30.685115 7.836471 0.000000 0.000000 0.000000 8.485619 -2.257242 4.820628 1.165320 -0.228466 -3.254013 -3.760529 -15.209304 4.494504 0.000000 0.000000 0.000000 8.176782 -3.770772 -1.226818 0.000000 0.000000 0.000000 13.441295 -19.450090 -13.530607 -5.943157 1.356279 3.306926 0.644717 -2.232996 -13.463556 0.000000 0.000000 0.000000 -2.701586 -9.098514 6.670338 10.876271 -2.433097 14.879920 -11.072776 -5.614975 1.317340 
-0.615283 0.905811 1.276186 -3.937229 -26.180922 -1.333474 0.000000 0.000000 0.000000 11.811522 2.919964 16.707275 -0.376555 0.008364 2.617141 -1.324582 -33.839670 -12.661790 0.000000 0.000000 0.000000 -4.294947 2.712587 -16.024173 2.446892 -0.524548 -6.990594 -11.620468 -35.457347 11.737836 0.000000 0.000000 0.000000 8.752367 -2.232771 3.897482 1.940189 -0.314070 -2.771691 -3.816850 -15.383905 3.917899 0.000000 0.000000 0.000000 8.727467 -4.000306 -0.715957 0.000000 0.000000 0.000000 12.544067 -20.083958 -13.700078 -6.396180 1.584002 4.239775 0.403798 -2.510210 -14.176254 0.000000 0.000000 0.000000 -2.305275 -9.478171 6.678021 11.187367 -2.685268 15.980450 -11.139020 -5.779464 2.100482 
